<?xml version="1.0" standalone="no"?>
<!DOCTYPE svg PUBLIC "-//W3C//DTD SVG 20010904//EN"
 "http://www.w3.org/TR/2001/REC-SVG-20010904/DTD/svg10.dtd">
<svg version="1.0" xmlns="http://www.w3.org/2000/svg"
 width="1398.000000pt" height="1398.000000pt" viewBox="0 0 1398.000000 1398.000000"
 preserveAspectRatio="xMidYMid meet">
<metadata>
Created by potrace 1.14, written by Peter Selinger 2001-2017
</metadata>
<g transform="translate(0.000000,1398.000000) scale(0.100000,-0.100000)"
fill="#000000" stroke="none">
<path d="M6359 10957 c-19 -12 -44 -42 -57 -67 -21 -40 -23 -55 -19 -140 5
-113 49 -256 107 -353 26 -43 34 -64 26 -69 -6 -4 -68 -8 -137 -8 -113 0 -134
3 -213 30 -115 39 -196 53 -254 44 -138 -20 -181 -205 -91 -388 93 -187 436
-595 637 -757 40 -32 108 -80 152 -106 44 -27 79 -51 80 -54 0 -7 -321 -163
-430 -209 -191 -81 -704 -260 -744 -260 -6 0 -20 19 -31 42 -13 26 -33 48 -56
60 -36 19 -37 19 -27 60 16 74 -12 149 -67 175 -19 9 -36 26 -39 39 -10 37
-54 82 -94 95 -53 18 -148 15 -211 -6 -74 -24 -155 -103 -171 -165 l-11 -45
-167 -1 c-153 0 -175 -2 -257 -28 -107 -33 -211 -86 -282 -144 l-53 -42 -62
21 c-119 40 -194 90 -239 160 -43 67 -82 89 -158 89 -141 0 -224 -97 -225
-265 -1 -112 19 -163 109 -272 l74 -91 -57 -7 c-264 -33 -517 -156 -717 -350
-63 -61 -69 -65 -113 -65 -28 0 -67 10 -97 24 -61 28 -137 109 -153 164 -17
58 -15 154 8 277 40 220 21 378 -67 555 -67 134 -162 229 -293 294 -100 49
-200 76 -288 76 -69 0 -95 15 -203 114 -100 92 -157 128 -244 151 -110 28
-231 12 -347 -45 -159 -79 -267 -201 -330 -373 -23 -63 -26 -82 -16 -94 6 -8
20 -12 30 -10 28 8 22 -7 -22 -51 -41 -41 -77 -58 -281 -136 -113 -43 -177
-82 -211 -127 -46 -62 -63 -154 -33 -179 12 -10 24 -8 64 9 53 23 123 27 166
11 15 -6 85 -49 157 -96 229 -152 374 -208 524 -202 l83 3 -25 -27 c-14 -14
-24 -34 -22 -45 3 -16 15 -18 93 -21 82 -3 94 -1 152 28 80 39 151 112 191
193 17 35 50 133 72 218 48 178 74 241 119 287 65 65 109 54 177 -45 88 -129
113 -242 124 -574 10 -270 23 -356 69 -456 53 -112 195 -236 356 -309 l53 -25
-19 -55 c-32 -90 -67 -251 -79 -356 -14 -135 -13 -246 5 -385 l16 -118 -26
-88 c-55 -190 -119 -309 -229 -424 -148 -157 -303 -230 -521 -248 -121 -10
-175 -28 -232 -79 -64 -58 -100 -137 -125 -275 -15 -85 -21 -185 -28 -501 -5
-217 -13 -432 -19 -478 -10 -73 -16 -88 -55 -142 -64 -87 -80 -134 -74 -225 4
-62 11 -84 37 -126 l31 -51 -37 -111 c-33 -102 -37 -122 -37 -229 -1 -114 0
-117 29 -159 38 -54 136 -109 238 -132 103 -25 311 -37 452 -26 246 18 341 69
353 187 4 43 -2 59 -58 166 -34 65 -72 146 -85 181 l-24 62 30 29 c48 46 84
130 83 195 -1 70 -41 147 -102 198 -78 65 -85 85 -78 214 19 317 71 504 160
572 57 43 92 48 218 29 70 -10 145 -15 199 -12 l85 5 -13 -61 c-18 -81 -9
-203 23 -314 14 -48 67 -186 119 -307 52 -121 104 -254 116 -296 l22 -76 -45
-55 c-63 -77 -82 -131 -76 -215 6 -87 41 -156 107 -214 l49 -44 -10 -65 c-13
-89 -4 -208 19 -261 57 -129 226 -189 533 -189 168 0 402 20 475 41 103 29
155 76 155 141 0 55 -18 92 -113 230 -120 176 -116 160 -68 214 81 92 65 198
-41 274 -22 16 -84 43 -138 60 -54 16 -106 37 -114 46 -55 54 -133 246 -167
406 -31 146 -33 367 -4 420 27 49 93 102 217 173 265 151 461 297 606 450 l90
95 73 0 c41 0 168 -5 283 -11 l210 -12 25 -31 c64 -80 154 -156 228 -193 74
-36 81 -38 177 -38 89 0 106 3 146 25 25 14 56 43 70 64 13 21 26 34 28 28 5
-15 -164 -677 -234 -913 l-66 -224 -88 -90 c-48 -49 -101 -112 -118 -139 -81
-128 -60 -274 52 -353 l34 -25 -39 -60 c-174 -270 -82 -468 251 -539 183 -39
601 -36 758 6 104 27 152 79 152 162 0 48 -10 70 -80 179 -27 43 -10 52 92 46
142 -7 249 30 334 115 81 81 104 195 65 324 -11 35 -21 72 -23 81 -4 24 207
218 372 341 162 121 237 197 283 286 61 116 68 215 26 339 -38 110 -93 186
-339 462 -85 96 -176 200 -201 230 -44 51 -119 167 -119 182 0 3 25 21 56 38
162 93 337 255 476 441 l80 106 136 71 c223 114 369 159 562 172 l125 9 38
-37 c63 -60 93 -112 121 -211 50 -175 162 -356 282 -455 145 -119 263 -167
425 -174 96 -4 111 -2 171 22 l66 26 88 -15 c214 -37 574 43 692 155 22 21 32
26 32 16 0 -9 11 -23 25 -32 50 -32 575 -42 614 -10 23 18 124 174 261 402
117 196 137 224 188 262 31 24 82 68 113 98 53 53 56 54 72 36 9 -10 17 -24
17 -30 0 -7 5 -12 10 -12 15 0 12 28 -6 59 -16 26 -15 30 7 64 13 20 28 37 33
37 5 0 40 -25 78 -56 38 -31 72 -53 76 -49 4 4 -25 38 -65 75 l-72 69 27 60
c30 69 40 73 103 40 41 -20 57 -20 44 0 -9 15 -80 51 -100 51 -11 0 -15 6 -11
18 3 10 10 53 16 96 14 109 -2 235 -46 365 -32 97 -34 109 -24 157 25 121 -29
372 -111 511 -110 186 -322 299 -492 264 -85 -18 -119 -52 -125 -124 -4 -50
-7 -57 -26 -57 -12 0 -41 18 -65 40 -111 104 -217 149 -347 150 -45 0 -104 -7
-134 -16 l-54 -16 -20 29 c-11 15 -46 55 -77 88 -31 33 -69 80 -84 105 -52 82
-179 192 -296 255 l-61 33 87 12 c50 7 136 10 199 8 123 -6 189 -25 263 -79
56 -39 79 -36 75 11 -8 96 -113 230 -232 297 -37 21 -50 34 -50 51 0 38 -95
125 -165 152 -93 36 -220 39 -312 8 l-71 -24 24 49 c14 27 24 58 22 70 -3 19
-9 22 -50 20 -63 -2 -138 -28 -198 -68 -49 -33 -50 -33 -50 -11 0 27 -21 49
-41 41 -9 -3 -25 17 -48 60 -18 36 -32 67 -30 69 11 11 234 95 389 147 324
108 639 179 875 199 205 16 350 2 1030 -105 558 -88 908 -134 1120 -147 l40
-3 -49 -25 c-98 -50 -192 -186 -170 -248 5 -15 19 -31 31 -37 l21 -9 -25 -49
c-59 -118 -81 -302 -44 -383 24 -53 55 -74 107 -74 55 0 92 31 124 102 13 29
25 55 27 57 1 2 12 -8 24 -22 26 -34 79 -37 110 -6 20 20 69 119 69 139 0 5 5
21 10 36 8 21 14 24 22 16 16 -16 70 -15 93 2 10 7 39 55 64 107 53 108 88
139 157 139 72 0 78 -7 45 -49 -19 -24 -44 -42 -70 -49 -119 -36 -231 -226
-231 -393 0 -56 -1 -58 -37 -76 -57 -28 -83 -74 -83 -148 0 -95 24 -149 97
-224 35 -36 63 -74 63 -86 1 -11 10 -60 21 -110 17 -75 21 -148 28 -445 11
-435 -6 -709 -50 -809 -23 -52 -24 -65 -4 -81 12 -10 29 -7 90 15 94 34 141
64 228 145 67 61 236 279 354 455 157 235 291 540 333 757 13 64 15 68 62 99
112 72 139 184 64 264 -24 25 -42 35 -63 35 -30 0 -30 0 -37 73 -18 193 -71
325 -161 404 -30 26 -55 52 -55 58 0 6 -12 34 -26 63 -19 39 -40 61 -84 90
l-59 40 25 23 c14 13 55 42 91 64 84 51 124 99 130 159 6 51 -6 44 143 81 98
24 219 65 272 91 55 28 62 45 56 137 -5 83 -34 127 -83 127 -19 0 -36 -4 -39
-9 -11 -17 -299 -111 -340 -111 -3 0 -6 15 -6 33 0 36 -32 94 -56 104 -9 3
-26 -5 -42 -21 l-28 -26 4 100 c5 116 -15 223 -59 316 -62 132 -135 152 -169
48 l-12 -36 -43 64 c-82 122 -224 228 -306 228 -38 0 -89 -29 -109 -62 -46
-76 -14 -186 104 -353 104 -146 125 -180 151 -239 l26 -58 -49 36 c-64 47
-149 86 -188 86 -42 0 -81 -33 -93 -78 -15 -55 3 -117 56 -191 l17 -24 -99 7
c-55 4 -134 12 -175 17 -73 10 -894 150 -997 170 l-52 10 15 42 c23 64 71 133
132 186 53 47 55 49 47 87 -9 49 -74 115 -132 132 -107 32 -180 5 -410 -151
-130 -89 -246 -155 -299 -171 -12 -4 -89 5 -172 18 -286 47 -421 59 -632 53
-149 -4 -230 -11 -345 -31 -290 -51 -610 -139 -945 -259 l-155 -56 -60 61
c-288 294 -758 512 -1388 643 -276 58 -263 52 -362 160 -101 110 -144 135
-232 135 -46 0 -68 -5 -94 -23z m1132 -2171 c204 -41 312 -72 306 -89 -13 -40
-288 -125 -435 -134 -109 -6 -207 13 -314 63 -43 21 -78 40 -78 43 0 7 318
149 336 150 6 1 89 -15 185 -33z m-1846 -593 c-13 -29 -35 -116 -35 -135 0
-16 -12 -18 -124 -18 l-124 0 16 48 c29 92 29 92 64 93 18 1 62 7 98 14 99 19
114 18 105 -2z m-555 -60 c-1 -35 -14 -53 -41 -53 -27 0 -28 1 -18 30 8 22 17
30 35 30 13 0 24 -3 24 -7z m1178 -3292 c45 -41 82 -80 82 -88 0 -60 -123
-196 -265 -292 -124 -85 -140 -89 -131 -28 12 72 83 272 141 393 50 107 56
115 72 103 10 -8 55 -47 101 -88z"/>
</g>
</svg>
